<?xml version="1.0" encoding="UTF-8"?>
<svg width="95px" height="87px" viewBox="0 0 95 87" version="1.1" xmlns="http://www.w3.org/2000/svg" xmlns:xlink="http://www.w3.org/1999/xlink">
    <!-- Generator: Sketch 46.1 (44463) - http://www.bohemiancoding.com/sketch -->
    <title>Group 5</title>
    <desc>Created with Sketch.</desc>
    <defs></defs>
    <g id="-Exploration" stroke="none" stroke-width="1" fill="none" fill-rule="evenodd" stroke-linecap="round" stroke-linejoin="round">
        <g id="Process" transform="translate(-1019.000000, -1109.000000)" stroke="#FFFFFF" stroke-width="2">
            <g id="Group-5" transform="translate(1020.000000, 1110.000000)">
                <path d="M13.5266036,78.0964426 C-4.50886787,60.2309378 -4.50886787,31.2626443 13.5266036,13.3931615 C31.5620751,-4.46438716 60.8019477,-4.46438716 78.8414351,13.3931615 C96.8769066,31.2626443 96.8769066,60.2309378 78.8414351,78.0964426 C70.215251,86.6413333 56.2318372,86.6413333 47.6016371,78.0964426 L30.5661283,61.2174987 C26.8032166,57.4860707 21.1488091,63.1468619 24.8876254,66.8424873 C28.0200386,69.9493587 28.0200386,74.9816151 24.8876254,78.0964426 C21.7511963,81.2033139 16.6630327,81.2033139 13.5266036,78.0964426 L13.5266036,78.0964426 Z" id="Stroke-2143"></path>
                <path d="M67.5623303,30.1895722 C65.1607613,32.5444281 61.2607774,32.5444281 58.8551031,30.1895722 C56.4494289,27.8387417 56.4494289,24.0065659 58.8551031,21.6557355 C61.2607774,19.2928288 65.1607613,19.2928288 67.5623303,21.6557355 C69.9680045,24.0065659 69.9680045,27.8387417 67.5623303,30.1895722 L67.5623303,30.1895722 Z" id="Stroke-2144"></path>
                <path d="M69.7247576,48.2211331 C68.0397701,46.5688516 68.0397701,43.8981563 69.7247576,42.2458748 C71.4097452,40.5978192 74.1333057,40.5978192 75.8182932,42.2458748 C77.5032808,43.8981563 77.5032808,46.5688516 75.8182932,48.2211331 C74.1333057,49.8734145 71.4097452,49.8734145 69.7247576,48.2211331 L69.7247576,48.2211331 Z" id="Stroke-2145"></path>
                <path d="M56.857516,70.563809 C53.7345003,67.4995933 53.7345003,62.5246567 56.857516,59.4604411 C59.9805316,56.4001488 65.057434,56.4001488 68.1804496,59.4604411 C71.3074692,62.5246567 71.3074692,67.4995933 68.1804496,70.563809 C65.057434,73.6241012 59.9805316,73.6241012 56.857516,70.563809 L56.857516,70.563809 Z" id="Stroke-2146"></path>
                <path d="M42.2049336,17.92396 C44.6105075,20.282055 44.6146126,24.1049053 42.2049336,26.4589762 C39.8034647,28.8170712 35.9036434,28.8170712 33.5021745,26.4589762 C31.0924955,24.1049053 31.0924955,20.282055 33.5021745,17.92396 C35.9077485,15.565865 39.8034647,15.565865 42.2049336,17.92396 L42.2049336,17.92396 Z" id="Stroke-2147"></path>
            </g>
        </g>
    </g>
</svg>