<?xml version="1.0" encoding="UTF-8"?>
<svg width="75px" height="70px" viewBox="0 0 75 70" version="1.1" xmlns="http://www.w3.org/2000/svg" xmlns:xlink="http://www.w3.org/1999/xlink">
    <!-- Generator: Sketch 46.1 (44463) - http://www.bohemiancoding.com/sketch -->
    <title>Group 5</title>
    <desc>Created with Sketch.</desc>
    <defs></defs>
    <g id="-Exploration" stroke="none" stroke-width="1" fill="none" fill-rule="evenodd" stroke-linecap="round" stroke-linejoin="round">
        <g id="Home" transform="translate(-1038.000000, -1324.000000)" stroke-width="2" stroke="#000000">
            <g id="Group-10" transform="translate(1039.000000, 1325.000000)">
                <g id="Group-5">
                    <path d="M10.6693799,62.8430406 C-3.55645995,48.4669358 -3.55645995,25.1565828 10.6693799,10.777277 C24.8952197,-3.59242565 47.9587556,-3.59242565 62.187763,10.777277 C76.4136028,25.1565828 76.4136028,48.4669358 62.187763,62.8430406 C55.3836873,69.7189865 44.3539892,69.7189865 37.5467459,62.8430406 L24.1096467,49.2608066 C21.1415746,46.2581822 16.6815473,50.8133363 19.6306136,53.7871509 C22.1013674,56.2872039 22.1013674,60.3365854 19.6306136,62.8430406 C17.1566922,65.3430935 13.1433012,65.3430935 10.6693799,62.8430406 L10.6693799,62.8430406 Z" id="Stroke-2143"></path>
                    <path d="M53.2911429,24.2930977 C51.3968571,26.1880151 48.3206667,26.1880151 46.4231429,24.2930977 C44.525619,22.4014195 44.525619,19.317725 46.4231429,17.4260468 C48.3206667,15.5246511 51.3968571,15.5246511 53.2911429,17.4260468 C55.1886667,19.317725 55.1886667,22.4014195 53.2911429,24.2930977 L53.2911429,24.2930977 Z" id="Stroke-2144"></path>
                    <path d="M54.9968008,38.8028254 C53.6677331,37.4732592 53.6677331,35.3241905 54.9968008,33.9946243 C56.3258685,32.6684586 58.4741315,32.6684586 59.8031992,33.9946243 C61.1322669,35.3241905 61.1322669,37.4732592 59.8031992,38.8028254 C58.4741315,40.1323915 56.3258685,40.1323915 54.9968008,38.8028254 L54.9968008,38.8028254 Z" id="Stroke-2145"></path>
                    <path d="M44.8475059,56.7816429 C42.3841647,54.3159143 42.3841647,50.3126571 44.8475059,47.8469286 C47.3108471,45.3843571 51.3153557,45.3843571 53.7786969,47.8469286 C56.2451963,50.3126571 56.2451963,54.3159143 53.7786969,56.7816429 C51.3153557,59.2442143 47.3108471,59.2442143 44.8475059,56.7816429 L44.8475059,56.7816429 Z" id="Stroke-2146"></path>
                    <path d="M33.2899877,14.4231429 C35.1874324,16.3206667 35.1906704,19.3968571 33.2899877,21.2911429 C31.395781,23.1886667 28.3197187,23.1886667 26.425512,21.2911429 C24.5248293,19.3968571 24.5248293,16.3206667 26.425512,14.4231429 C28.3229567,12.525619 31.395781,12.525619 33.2899877,14.4231429 L33.2899877,14.4231429 Z" id="Stroke-2147"></path>
                </g>
            </g>
        </g>
    </g>
</svg>