<?xml version="1.0" encoding="UTF-8"?>
<svg width="89px" height="70px" viewBox="0 0 89 70" version="1.1" xmlns="http://www.w3.org/2000/svg" xmlns:xlink="http://www.w3.org/1999/xlink">
    <!-- Generator: Sketch 46.1 (44463) - http://www.bohemiancoding.com/sketch -->
    <title>Group 6</title>
    <desc>Created with Sketch.</desc>
    <defs></defs>
    <g id="-Exploration" stroke="none" stroke-width="1" fill="none" fill-rule="evenodd">
        <g id="Home" transform="translate(-380.000000, -1324.000000)">
            <g id="Group-11" transform="translate(381.000000, 1325.000000)">
                <g id="Group-6">
                    <path d="M87,60.4444444 C87,64.6151111 83.6183478,68 79.4347826,68 L7.56521739,68 C3.38921739,68 0,64.6151111 0,60.4444444 L0,7.55555556 C0,3.38488889 3.38921739,0 7.56521739,0 L79.4347826,0 C83.6183478,0 87,3.38488889 87,7.55555556 L87,60.4444444 L87,60.4444444 Z" id="Stroke-98" stroke="#000000" stroke-width="2" stroke-linecap="round" stroke-linejoin="round"></path>
                    <path d="M0,19 L87,19" id="Stroke-99" stroke="#000000" stroke-width="2" stroke-linecap="round" stroke-linejoin="round"></path>
                    <path d="M15,9 C15,10.104 14.104,11 13,11 C11.896,11 11,10.104 11,9 C11,7.896 11.896,7 13,7 C14.104,7 15,7.896 15,9 L15,9 Z" id="Stroke-100" fill="#000000"></path>
                    <path d="M27,9 C27,10.104 26.104,11 25,11 C23.896,11 23,10.104 23,9 C23,7.896 23.896,7 25,7 C26.104,7 27,7.896 27,9 L27,9 Z" id="Stroke-101" fill="#000000"></path>
                    <path d="M38,9 C38,10.104 37.104,11 36,11 C34.896,11 34,10.104 34,9 C34,7.896 34.896,7 36,7 C37.104,7 38,7.896 38,9 L38,9 Z" id="Stroke-102" fill="#000000"></path>
                    <polyline id="Stroke-103" stroke="#000000" stroke-width="2" stroke-linecap="round" stroke-linejoin="round" points="10 28 16 34.5 10 41"></polyline>
                </g>
            </g>
        </g>
    </g>
</svg>