<?xml version="1.0" encoding="UTF-8"?>
<svg width="113px" height="87px" viewBox="0 0 113 87" version="1.1" xmlns="http://www.w3.org/2000/svg" xmlns:xlink="http://www.w3.org/1999/xlink">
    <!-- Generator: Sketch 46.1 (44463) - http://www.bohemiancoding.com/sketch -->
    <title>Group 6</title>
    <desc>Created with Sketch.</desc>
    <defs></defs>
    <g id="-Exploration" stroke="none" stroke-width="1" fill="none" fill-rule="evenodd" stroke-linecap="round" stroke-linejoin="round">
        <g id="Process" transform="translate(-1151.000000, -1109.000000)" stroke="#FFFFFF" stroke-width="2">
            <g id="Group-6" transform="translate(1152.000000, 1110.000000)">
                <path d="M110.932203,74.8251378 C110.932203,79.9880723 106.620317,84.17828 101.285925,84.17828 L9.64627856,84.17828 C4.32153279,84.17828 0,79.9880723 0,74.8251378 L0,9.35314222 C0,4.19020771 4.32153279,0 9.64627856,0 L101.285925,0 C106.620317,0 110.932203,4.19020771 110.932203,9.35314222 L110.932203,74.8251378 L110.932203,74.8251378 Z" id="Stroke-98"></path>
                <path d="M0,23.5204018 L110.932203,23.5204018" id="Stroke-99"></path>
                <path d="M19.126242,11.1412429 C19.126242,12.5079021 17.9837678,13.6170747 16.5760764,13.6170747 C15.168385,13.6170747 14.0259108,12.5079021 14.0259108,11.1412429 C14.0259108,9.7745838 15.168385,8.66541117 16.5760764,8.66541117 C17.9837678,8.66541117 19.126242,9.7745838 19.126242,11.1412429 L19.126242,11.1412429 Z" id="Stroke-100" fill="#FFFFFF"></path>
                <path d="M34.4272355,11.1412429 C34.4272355,12.5079021 33.2847613,13.6170747 31.8770699,13.6170747 C30.4693785,13.6170747 29.3269043,12.5079021 29.3269043,11.1412429 C29.3269043,9.7745838 30.4693785,8.66541117 31.8770699,8.66541117 C33.2847613,8.66541117 34.4272355,9.7745838 34.4272355,11.1412429 L34.4272355,11.1412429 Z" id="Stroke-101" fill="#FFFFFF"></path>
                <path d="M48.4531463,11.1412429 C48.4531463,12.5079021 47.3106721,13.6170747 45.9029807,13.6170747 C44.4952893,13.6170747 43.3528151,12.5079021 43.3528151,11.1412429 C43.3528151,9.7745838 44.4952893,8.66541117 45.9029807,8.66541117 C47.3106721,8.66541117 48.4531463,9.7745838 48.4531463,11.1412429 L48.4531463,11.1412429 Z" id="Stroke-102" fill="#FFFFFF"></path>
                <polyline id="Stroke-103" points="12.750828 34.6616447 20.4013248 42.7080979 12.750828 50.7545512"></polyline>
            </g>
        </g>
    </g>
</svg>