<?xml version="1.0" encoding="UTF-8"?>
<svg width="97px" height="87px" viewBox="0 0 97 87" version="1.1" xmlns="http://www.w3.org/2000/svg" xmlns:xlink="http://www.w3.org/1999/xlink">
    <!-- Generator: Sketch 46.1 (44463) - http://www.bohemiancoding.com/sketch -->
    <title>Group 924 Copy</title>
    <desc>Created with Sketch.</desc>
    <defs></defs>
    <g id="-Exploration" stroke="none" stroke-width="1" fill="none" fill-rule="evenodd" stroke-linecap="round" stroke-linejoin="round">
        <g id="Process" transform="translate(-767.000000, -1101.000000)" stroke="#FFFFFF" stroke-width="2">
            <g id="Group-924-Copy" transform="translate(768.000000, 1102.000000)">
                <path d="M46.710353,72.4987753 L8.12353965,72.4987753 C3.63934576,72.4987753 0,68.8899473 0,64.4433558 L0,8.05541947 C0,3.60882792 3.63934576,0 8.12353965,0 L85.2971663,0 C89.7894837,0 93.420706,3.60882792 93.420706,8.05541947 L93.420706,38.2632425" id="Stroke-7304"></path>
                <path d="M0,20.5413197 L93.420706,20.5413197" id="Stroke-7305"></path>
                <path d="M15.772327,10.2706598 C15.772327,11.2711429 14.957019,12.0831292 13.9524431,12.0831292 C12.9478672,12.0831292 12.1325592,11.2711429 12.1325592,10.2706598 C12.1325592,9.27017673 12.9478672,8.45819045 13.9524431,8.45819045 C14.957019,8.45819045 15.772327,9.27017673 15.772327,10.2706598 L15.772327,10.2706598 Z" id="Stroke-7306" fill="#FFFFFF"></path>
                <path d="M27.9048862,10.2706598 C27.9048862,11.2711429 27.0895782,12.0831292 26.0850023,12.0831292 C25.0804264,12.0831292 24.2651184,11.2711429 24.2651184,10.2706598 C24.2651184,9.27017673 25.0804264,8.45819045 26.0850023,8.45819045 C27.0895782,8.45819045 27.9048862,9.27017673 27.9048862,10.2706598 L27.9048862,10.2706598 Z" id="Stroke-7307" fill="#FFFFFF"></path>
                <path d="M41.2507013,10.2706598 C41.2507013,11.2711429 40.4353934,12.0831292 39.4308175,12.0831292 C38.4262415,12.0831292 37.6109336,11.2711429 37.6109336,10.2706598 C37.6109336,9.27017673 38.4262415,8.45819045 39.4308175,8.45819045 C40.4353934,8.45819045 41.2507013,9.27017673 41.2507013,10.2706598 L41.2507013,10.2706598 Z" id="Stroke-7308" fill="#FFFFFF"></path>
                <path d="M74.0086112,32.6244489 L32.7579099,32.6244489" id="Stroke-7309"></path>
                <path d="M16.9855829,32.6244489 L20.6253507,32.6244489" id="Stroke-7310"></path>
                <path d="M49.7434928,44.7075781 L32.7579099,44.7075781" id="Stroke-7311"></path>
                <path d="M16.9855829,44.7075781 L20.6253507,44.7075781" id="Stroke-7312"></path>
                <path d="M49.7434928,56.7907073 L32.7579099,56.7907073" id="Stroke-7313"></path>
                <path d="M16.9855829,56.7907073 L20.6253507,56.7907073" id="Stroke-7314"></path>
                <path d="M94.6339619,84.5819045 C94.6339619,74.5730458 86.2132918,66.4572107 75.8284951,66.4572107 C65.4436984,66.4572107 57.0230283,74.5730458 57.0230283,84.5819045 L94.6339619,84.5819045 L94.6339619,84.5819045 Z" id="Stroke-7315"></path>
                <path d="M86.1411704,55.5823944 C86.1411704,49.5755413 81.2532932,44.7075781 75.2218671,44.7075781 C69.1904411,44.7075781 64.3025638,49.5755413 64.3025638,55.5823944 C64.3025638,61.5892474 69.1904411,66.4572107 75.2218671,66.4572107 C81.2532932,66.4572107 86.1411704,61.5892474 86.1411704,55.5823944 L86.1411704,55.5823944 Z" id="Stroke-7316"></path>
            </g>
        </g>
    </g>
</svg>