<?xml version="1.0" encoding="UTF-8"?>
<svg width="86px" height="77px" viewBox="0 0 86 77" version="1.1" xmlns="http://www.w3.org/2000/svg" xmlns:xlink="http://www.w3.org/1999/xlink">
    <!-- Generator: Sketch 46.1 (44463) - http://www.bohemiancoding.com/sketch -->
    <title>Group 924</title>
    <desc>Created with Sketch.</desc>
    <defs></defs>
    <g id="-Exploration" stroke="none" stroke-width="1" fill="none" fill-rule="evenodd">
        <g id="Home" transform="translate(-598.000000, -1324.000000)">
            <g id="Group-12" transform="translate(590.000000, 1325.000000)">
                <g id="Group-924" transform="translate(9.000000, 0.000000)">
                    <path d="M41.1486943,64.1278353 L7.15629466,64.1278353 C3.20602001,64.1278353 0,60.9356942 0,57.0025203 L0,7.12531503 C0,3.19214114 3.20602001,0 7.15629466,0 L75.141094,0 C79.0985249,0 82.2973886,3.19214114 82.2973886,7.12531503 L82.2973886,33.8452464" id="Stroke-7304" stroke="#000000" stroke-width="2" stroke-linecap="round" stroke-linejoin="round"></path>
                    <path d="M0,18.1695533 L82.2973886,18.1695533" id="Stroke-7305" stroke="#000000" stroke-width="2" stroke-linecap="round" stroke-linejoin="round"></path>
                    <path d="M13.8943643,9.08477667 C13.8943643,9.9697408 13.1761326,10.6879726 12.2911684,10.6879726 C11.4062043,10.6879726 10.6879726,9.9697408 10.6879726,9.08477667 C10.6879726,8.19981254 11.4062043,7.48158079 12.2911684,7.48158079 C13.1761326,7.48158079 13.8943643,8.19981254 13.8943643,9.08477667 L13.8943643,9.08477667 Z" id="Stroke-7306" fill="#000000"></path>
                    <path d="M24.5823369,9.08477667 C24.5823369,9.9697408 23.8641051,10.6879726 22.979141,10.6879726 C22.0941769,10.6879726 21.3759451,9.9697408 21.3759451,9.08477667 C21.3759451,8.19981254 22.0941769,7.48158079 22.979141,7.48158079 C23.8641051,7.48158079 24.5823369,8.19981254 24.5823369,9.08477667 L24.5823369,9.08477667 Z" id="Stroke-7307" fill="#000000"></path>
                    <path d="M36.3391067,9.08477667 C36.3391067,9.9697408 35.6208749,10.6879726 34.7359108,10.6879726 C33.8509467,10.6879726 33.1327149,9.9697408 33.1327149,9.08477667 C33.1327149,8.19981254 33.8509467,7.48158079 34.7359108,7.48158079 C35.6208749,7.48158079 36.3391067,8.19981254 36.3391067,9.08477667 L36.3391067,9.08477667 Z" id="Stroke-7308" fill="#000000"></path>
                    <path d="M65.1966326,28.8575259 L28.8575259,28.8575259" id="Stroke-7309" stroke="#000000" stroke-width="2" stroke-linecap="round" stroke-linejoin="round"></path>
                    <path d="M14.9631616,28.8575259 L18.1695533,28.8575259" id="Stroke-7310" stroke="#000000" stroke-width="2" stroke-linecap="round" stroke-linejoin="round"></path>
                    <path d="M43.8206875,39.5454984 L28.8575259,39.5454984" id="Stroke-7311" stroke="#000000" stroke-width="2" stroke-linecap="round" stroke-linejoin="round"></path>
                    <path d="M14.9631616,39.5454984 L18.1695533,39.5454984" id="Stroke-7312" stroke="#000000" stroke-width="2" stroke-linecap="round" stroke-linejoin="round"></path>
                    <path d="M43.8206875,50.233471 L28.8575259,50.233471" id="Stroke-7313" stroke="#000000" stroke-width="2" stroke-linecap="round" stroke-linejoin="round"></path>
                    <path d="M14.9631616,50.233471 L18.1695533,50.233471" id="Stroke-7314" stroke="#000000" stroke-width="2" stroke-linecap="round" stroke-linejoin="round"></path>
                    <path d="M83.3661859,74.8158079 C83.3661859,65.9626039 75.9481392,58.783849 66.7998284,58.783849 C57.6515177,58.783849 50.233471,65.9626039 50.233471,74.8158079 L83.3661859,74.8158079 L83.3661859,74.8158079 Z" id="Stroke-7315" stroke="#000000" stroke-width="2" stroke-linecap="round" stroke-linejoin="round"></path>
                    <path d="M75.8846051,49.1646737 C75.8846051,43.8513911 71.5787125,39.5454984 66.2654298,39.5454984 C60.9521472,39.5454984 56.6462545,43.8513911 56.6462545,49.1646737 C56.6462545,54.4779564 60.9521472,58.783849 66.2654298,58.783849 C71.5787125,58.783849 75.8846051,54.4779564 75.8846051,49.1646737 L75.8846051,49.1646737 Z" id="Stroke-7316" stroke="#000000" stroke-width="2" stroke-linecap="round" stroke-linejoin="round"></path>
                </g>
            </g>
        </g>
    </g>
</svg>